<svg xmlns="http://www.w3.org/2000/svg" version="1.1" xmlns:xlink="http://www.w3.org/1999/xlink" xmlns:svgjs="http://svgjs.dev/svgjs" width="128" height="128" viewBox="0 0 128 128"><g transform="matrix(0.8046875,0,0,0.8046875,12.221578124999994,14.88467212270728)"><svg viewBox="0 0 96 92" data-background-color="#ffffff" preserveAspectRatio="xMidYMid meet" height="122" width="128" xmlns="http://www.w3.org/2000/svg" xmlns:xlink="http://www.w3.org/1999/xlink"><g id="tight-bounds" transform="matrix(1,0,0,1,0.25950000000000273,0.027542661387798262)"><svg viewBox="0 0 95.481 91.9449146772244" height="91.9449146772244" width="95.481"><g><svg viewBox="0 0 95.481 91.9449146772244" height="91.9449146772244" width="95.481"><g><svg viewBox="0 0 95.481 91.9449146772244" height="91.9449146772244" width="95.481"><g id="textblocktransform"><svg viewBox="0 0 95.481 91.9449146772244" height="91.9449146772244" width="95.481" id="textblock"><g><svg viewBox="0 0 95.481 91.9449146772244" height="91.9449146772244" width="95.481"><g><svg viewBox="0 0 95.481 91.9449146772244" height="91.9449146772244" width="95.481"><g><svg xmlns="http://www.w3.org/2000/svg" xmlns:xlink="http://www.w3.org/1999/xlink" version="1.1" x="0" y="0" viewBox="4.126 5.826761691052359 91.746 88.34823830894764" enable-background="new 0 0 100 100" xml:space="preserve" height="91.9449146772244" width="95.481" class="icon-icon-0" data-fill-palette-color="accent" id="icon-0"><path d="M38.431 27.455C38.672 27.207 38.977 26.975 39.365 26.793 39.904 26.539 40.361 26.349 40.736 26.206 40.811 26.177 40.883 26.151 40.951 26.126 41.506 25.924 41.845 25.84 41.974 25.804A0.3 0.3 0 0 0 42.03 25.786C42.082 25.758 44.973 24.999 46.3 24.277 46.547 24.119 46.719 23.993 46.781 23.948 46.789 23.903 46.797 23.858 46.801 23.812 46.808 23.743 46.812 23.673 46.817 23.604L46.837 22.956C42.431 22.995 41.132 21.107 41.132 21.107S43.65 21.068 43.494 14.422 46.402 6.678 47.544 6.244C50.87 4.98 52.541 6.991 52.541 6.991 56.396 6.634 57.46 10.846 56.986 15.643S59.147 21.186 59.147 21.186C57.337 23.035 53.52 22.919 53.52 22.919L53.639 23.931S53.835 24.08 54.146 24.28C55.472 25.001 58.364 25.761 58.416 25.789 58.425 25.794 58.455 25.802 58.504 25.816L58.573 25.835C58.775 25.89 59.168 26.001 59.754 26.227 60.12 26.368 60.562 26.553 61.081 26.797 61.403 26.948 61.668 27.133 61.886 27.333 59.317 31.084 55.003 33.545 50.114 33.545A14.26 14.26 0 0 1 38.431 27.455M16.071 61.813C16.947 61.813 17.657 61.103 17.657 60.227V51.104H48.414V60.227A1.586 1.586 0 1 0 51.586 60.227V51.104H82.343V60.227A1.586 1.586 0 1 0 85.515 60.227V49.519C85.515 48.643 84.805 47.933 83.929 47.933H51.67V38.103A1.586 1.586 0 1 0 48.498 38.103V47.933H16.071C15.195 47.933 14.485 48.643 14.485 49.519V60.228C14.485 61.103 15.195 61.813 16.071 61.813M94.99 87.452A40.6 40.6 0 0 1 88.725 85.322C88.37 84.848 88.199 84.046 88.122 83.52 88.895 82.476 89.288 81.25 89.48 80.158 89.807 80.383 90.35 80.265 90.948 78.13 91.434 76.394 91.138 75.813 90.719 75.666 92.083 69.062 88.968 68.841 88.968 68.841S88.498 67.927 87.26 67.236C86.431 66.739 85.276 66.353 83.752 66.487 83.259 66.511 82.793 66.607 82.355 66.757H82.354C81.794 66.949 81.281 67.227 80.818 67.553A8.2 8.2 0 0 0 79.237 68.875C78.486 69.651 77.817 70.654 77.527 71.906A5.7 5.7 0 0 0 77.671 75.288C77.111 75.235 76.45 75.563 77.072 77.788 77.527 79.414 77.95 79.87 78.271 79.896 78.451 81.072 78.855 82.441 79.726 83.583 79.653 84.057 79.507 84.721 79.227 85.181 79.206 85.191 76.279 86.61 72.867 87.451A3.3 3.3 0 0 0 71.984 87.805C74.566 91.647 78.952 94.175 83.928 94.175S93.29 91.647 95.872 87.805A3.3 3.3 0 0 0 94.99 87.452M54.88 85.322C54.525 84.848 54.354 84.046 54.277 83.52 55.05 82.476 55.443 81.25 55.635 80.158 55.962 80.383 56.505 80.265 57.103 78.13 57.589 76.394 57.293 75.813 56.874 75.666 58.238 69.062 55.123 68.841 55.123 68.841S54.653 67.927 53.415 67.236C52.586 66.739 51.431 66.353 49.907 66.487 49.414 66.511 48.948 66.607 48.51 66.757H48.509C47.949 66.949 47.436 67.227 46.973 67.553A8.2 8.2 0 0 0 45.392 68.875C44.641 69.651 43.972 70.654 43.682 71.906A5.7 5.7 0 0 0 43.826 75.288C43.266 75.235 42.605 75.563 43.227 77.788 43.682 79.414 44.105 79.87 44.426 79.896 44.606 81.072 45.01 82.441 45.881 83.583 45.808 84.057 45.662 84.721 45.382 85.181 45.361 85.191 42.434 86.61 39.022 87.451A3.3 3.3 0 0 0 38.139 87.805C40.721 91.647 45.107 94.175 50.083 94.175S59.445 91.647 62.027 87.805A3.3 3.3 0 0 0 61.144 87.45C57.721 86.608 54.88 85.322 54.88 85.322M20.867 85.322C20.512 84.848 20.341 84.046 20.264 83.52 21.037 82.476 21.43 81.25 21.622 80.158 21.949 80.383 22.492 80.265 23.09 78.13 23.576 76.394 23.28 75.813 22.861 75.666 24.225 69.062 21.11 68.841 21.11 68.841S20.64 67.927 19.402 67.236C18.573 66.739 17.418 66.353 15.894 66.487 15.401 66.511 14.935 66.607 14.497 66.757H14.496C13.936 66.949 13.423 67.227 12.96 67.553A8.2 8.2 0 0 0 11.379 68.875C10.628 69.651 9.959 70.654 9.669 71.906A5.7 5.7 0 0 0 9.813 75.288C9.253 75.235 8.592 75.563 9.214 77.788 9.669 79.414 10.092 79.87 10.413 79.896 10.593 81.072 10.997 82.441 11.868 83.583 11.795 84.057 11.649 84.721 11.369 85.181 11.348 85.191 8.421 86.611 5.009 87.451A3.3 3.3 0 0 0 4.126 87.805C6.708 91.647 11.094 94.175 16.07 94.175S25.432 91.647 28.014 87.805A3.3 3.3 0 0 0 27.131 87.45C23.708 86.608 20.867 85.322 20.867 85.322" fill="#5a189a" data-fill-palette-color="accent"></path></svg></g></svg></g></svg></g></svg></g></svg></g></svg></g><defs></defs></svg><rect width="95.481" height="91.9449146772244" fill="none" stroke="none" visibility="hidden"></rect></g></svg></g></svg>